<svg xmlns="http://www.w3.org/2000/svg" width="342" height="196" viewBox="0 0 342 196" fill="none" stroke="#3A362E" stroke-width="2.8" stroke-linecap="round" stroke-linejoin="round">
  <g fill="none">
    <path d="M96 96C106 54 190 54 200 96Z"/><path d="M148 68v104M148 68V54"/><path d="M56 176c20-10 40-10 60 0s40 10 60 0 40-10 60 0 40 10 60 0"/><circle cx="262" cy="52" r="18"/><path d="M262 22v-8M236 42l-6-6M288 42l6-6M262 82v8"/><path d="M206 150l30-24 26 24Z" transform="translate(0 0)"/>
  </g>
</svg>
