<svg xmlns="http://www.w3.org/2000/svg" width="342" height="196" viewBox="0 0 342 196" fill="none" stroke="#3A362E" stroke-width="2.8" stroke-linecap="round" stroke-linejoin="round">
  <g transform="translate(108 90) scale(0.48) translate(-171 -89)" fill="none"><g fill="none"><path d="M86 36h170v121H86Z" fill="none" /><path d="M145 111h52v46h-52Z" fill="none" /><path d="M103 54h30v30h-30Zm52 0h31v30h-31Zm54 0h30v30h-30Zm-106 51h30v30h-30Zm106 0h30v30h-30Z" fill="none" /><path d="M72 157h199M86 37h170" fill="none" /></g></g>
    <g transform="translate(234 90) scale(0.48) translate(-171 -89)" fill="none"><g fill="none"><circle cx="171" cy="89" r="59" fill="none" /><circle cx="171" cy="89" r="10" fill="none" /><circle cx="171" cy="48" r="12" fill="none" /><circle cx="212" cy="89" r="12" fill="none" /><circle cx="171" cy="130" r="12" fill="none" /><circle cx="130" cy="89" r="12" fill="none" /><path d="M224 131h54v20h-97" fill="none" /></g></g>
  </svg>
